<?xml version="1.0" encoding="utf-8"?>
<svg xmlns="http://www.w3.org/2000/svg"
	xmlns:xlink="http://www.w3.org/1999/xlink"
	width="292px" height="50px">
<path fill="rgb(61,95,150)" fill-rule="evenodd" d="M 291.24 18.92C 287.84 5.6 274.02-2.51 260.43 0.81 252.62 2.73 240.96 9.79 234.71 13.83 234.31 14.09 233.92 14.34 233.52 14.6 229.47 6.11 220.67 0.21 210.49 0.21 210.49 0.21 192.3 0.21 192.3 0.21 190.82 0.21 189.61 1.39 189.61 2.84 189.61 2.84 189.61 43.01 189.61 43.01 189.61 43.82 189.31 44.43 188.85 44.56 188.34 44.7 187.67 44.29 187.14 43.48 184.45 39.43 177.45 28.3 171.28 18.48 167.26 12.09 163.46 6.06 161.58 3.12 159.97 0.61 157.15-0.51 154.41 0.27 151.69 1.04 149.87 3.51 149.87 6.43 149.87 6.43 149.87 40.67 149.87 40.67 149.87 42.58 149.23 44.06 148.24 44.45 147.3 44.81 145.94 44.23 144.68 42.92 140.54 38.61 137.14 30.09 133.86 21.85 129.23 10.24 125.24 0.21 118.41 0.21 112.34 0.21 108.78 8.16 104.28 18.22 100.21 27.3 95.61 37.59 89.13 41.7 79.92 47.54 69.11 43.63 64.38 38.99 56.58 31.34 56.58 18.9 64.38 11.25 65.23 10.41 66.16 9.65 67.14 8.99 73.46 4.68 81.85 4.34 88.53 8.11 89.82 8.84 91.46 8.41 92.2 7.14 92.95 5.88 92.5 4.27 91.22 3.54 82.75-1.24 72.09-0.8 64.07 4.66 63.17 5.26 62.32 5.94 61.5 6.66 57.55 9.73 49.5 15.94 40.74 22.45 40.03 20.71 39.28 18.98 38.51 17.3 33.09 5.48 28.62 0.21 24.02 0.21 21.64 0.21 17.64 1.72 10.51 14.75 6.39 22.28 2.54 31.42 0.7 38.03-0.96 43.98 0.77 46.8 2.51 48.11 3.68 48.99 5.15 49.43 6.81 49.43 8.98 49.43 11.48 48.69 14.05 47.24 20.12 43.81 29.27 37.44 38.29 30.87 40.88 37.8 42.88 44.15 43.83 47.31 44.26 48.71 45.75 49.51 47.18 49.09 48.6 48.68 49.42 47.21 48.99 45.81 47.95 42.37 45.7 35.21 42.78 27.57 46.7 24.66 50.48 21.81 53.86 19.24 51.85 27.4 54.09 36.37 60.58 42.72 67.59 49.6 81.01 53.13 92.05 46.13 99.89 41.16 104.84 30.1 109.21 20.34 112.01 14.07 115.85 5.48 118.41 5.48 121.56 5.48 125.95 16.49 128.85 23.77 132.32 32.48 135.91 41.48 140.76 46.54 143.61 49.49 147.14 50.55 150.23 49.35 153.37 48.13 155.25 44.88 155.25 40.67 155.25 40.67 155.25 6.43 155.25 6.43 155.25 5.61 155.71 5.39 155.9 5.34 156.31 5.22 156.7 5.43 157.02 5.93 158.9 8.84 162.69 14.87 166.7 21.25 172.89 31.09 179.9 42.25 182.63 46.36 184.49 49.16 187.53 50.44 190.38 49.62 193.18 48.8 195 46.21 195 43.01 195 43.01 195 5.48 195 5.48 195 5.48 210.49 5.48 210.49 5.48 218.83 5.48 226 10.51 229 17.63 221.73 22.63 214.95 27.86 210.48 31.98 202.89 38.97 202.55 43.53 203.6 46.12 204.59 48.58 207.11 50 210.49 50 216.68 50 223.04 47.35 227.93 42.74 233.07 37.9 235.9 31.63 235.9 25.1 235.9 23.28 235.7 21.51 235.31 19.8 245.2 13.24 255.57 7.45 261.74 5.93 272.45 3.31 283.34 9.71 286.02 20.2 288.7 30.7 282.17 41.37 271.46 44 260.75 46.62 249.86 40.22 247.18 29.73 246.82 28.32 245.36 27.46 243.92 27.81 242.47 28.16 241.6 29.6 241.96 31.01 245.36 44.32 259.18 52.45 272.77 49.11 286.36 45.78 294.64 32.24 291.24 18.92M 11.36 42.67C 8.53 44.27 6.37 44.37 5.8 43.94 5.47 43.69 5.06 42.42 5.89 39.42 7.57 33.4 11.1 24.94 14.91 17.88 18.79 10.66 21.57 7.4 23.05 6.14 23.59 5.68 24.58 5.61 25.25 6.14 26.72 7.31 29.51 10.54 33.6 19.47 34.53 21.5 35.43 23.62 36.29 25.73 27 32.54 17.46 39.23 11.36 42.67M 210.49 44.72C 209.39 44.72 208.71 44.45 208.6 44.18 208.34 43.52 208.82 40.75 214.17 35.82 218.06 32.24 223.95 27.65 230.41 23.13 230.48 23.78 230.51 24.44 230.51 25.1 230.51 36.33 219.94 44.72 210.49 44.72"/>
</svg>